<?xml version="1.0" encoding="UTF-8"?><svg id="a" xmlns="http://www.w3.org/2000/svg" viewBox="0 0 651 621"><defs><style>.b{stroke:#fff;stroke-miterlimit:10;}</style></defs><path class="b" d="M142.49,137.96c9.34-6.45,11.68-19.26,5.23-28.6-6.46-9.34-19.27-11.68-28.61-5.23-9.34,6.45-11.68,19.26-5.23,28.6,6.46,9.33,19.27,11.68,28.61,5.23Z"/><path class="b" d="M650.21,258.26c-1.48-6.83-8.21-11.18-15.04-9.7-6.84,1.48-11.18,8.21-9.71,15.05,1.48,6.83,8.22,11.17,15.05,9.7,6.83-1.48,11.18-8.22,9.71-15.05Z"/><path class="b" d="M108.02,492.34c-6.79,1.47-11.12,8.16-9.65,14.96,1.46,6.8,8.17,11.12,14.96,9.65,6.8-1.47,11.12-8.16,9.65-14.96-1.47-6.8-8.17-11.11-14.97-9.65Z"/><path class="b" d="M192.75,28.97c7.78-1.68,12.72-9.34,11.04-17.11-1.68-7.77-9.34-12.71-17.11-11.03-7.78,1.68-12.72,9.33-11.04,17.11,1.68,7.77,9.34,12.71,17.11,11.03Z"/><path class="b" d="M299.52,588.61c-7.95,5.49-9.95,16.39-4.45,24.34,5.49,7.95,16.39,9.94,24.35,4.45,7.95-5.5,9.95-16.4,4.45-24.35-5.49-7.95-16.39-9.93-24.35-4.44Z"/><path class="b" d="M378.1,67.73c12.72-7.64,16.84-24.14,9.21-36.85-7.64-12.72-24.15-16.84-36.86-9.2-12.72,7.63-16.84,24.13-9.21,36.85,7.64,12.72,24.15,16.83,36.86,9.2Z"/><path class="b" d="M42.9,274.93c-12.34-8.46-29.19-5.32-37.65,7.01-8.46,12.33-5.32,29.18,7.01,37.64,12.34,8.46,29.19,5.32,37.65-7.01,8.46-12.33,5.32-29.18-7.02-37.64Z"/><path class="b" d="M551.02,168.8c-10.4,7.18-13.01,21.43-5.82,31.83,7.19,10.4,21.44,13,31.84,5.82,10.4-7.18,13.01-21.43,5.82-31.83-7.19-10.4-21.44-13-31.84-5.82Z"/><path class="b" d="M601.12,327.26c-9.19,1.98-15.04,11.04-13.05,20.23,1.98,9.2,11.04,15.03,20.24,13.05,9.19-1.99,15.04-11.04,13.05-20.23-1.99-9.2-11.05-15.03-20.24-13.05Z"/><path class="b" d="M465.1,539.08c-12.89,8.9-16.12,26.56-7.21,39.44,8.91,12.88,26.57,16.11,39.47,7.21,12.89-8.9,16.11-26.56,7.2-39.44-8.91-12.89-26.57-16.11-39.46-7.21Z"/><path class="b" d="M554.82,248.21c-9.01-12.78-21.76-21.17-35.67-25.31,2.04-26.65-4.62-54.11-21-77.81-31.94-46.2-90.25-63.15-140.69-44.86-45.07-28.87-104.69-30.08-151.48,2.24-23.68,16.36-40.56,38.86-50.07,63.87-13.77,1.86-27.35,6.47-39.58,14.92-40.4,27.91-51.06,82.33-25.43,123.58-34.79,31.86-42.81,84.9-16.38,125.87,15.68,24.29,40.31,38.93,66.76,43.28,.49,19.83,6.44,39.74,18.56,57.27,33.15,47.96,98.92,59.97,146.89,26.84,1.83-1.27,3.25-2.88,4.98-4.24,26.74,23.86,66.87,27.79,97.66,6.52,16.43-11.34,26.93-27.85,31.52-45.79,24.09,.89,48.61-5.23,69.97-19.99,51.23-35.39,64.97-104.58,32.2-156.79,26.31-22.18,31.97-60.97,11.76-89.61Zm-169.22,192.36c-22.53-11.04-36.21-36.27-30.36-61.19,4.37-18.64,46.02-94.74,47.58-106.44,1.59-11.93-4.78-12.95-8.76-13.15-5.13-.27-9.18,2.23-14.22,9.83-4.58,6.93-56.39,110.64-60.88,119.12-8.04,15.15-18.16,18.8-28.32,18.26-14.82-.77-21.6-8.71-19.46-22.99,1.26-8.4,34.11-82.59,35.81-94.17,1.05-7.16-.37-14.76-7.47-18.4-7.11-3.64-15.49,1.94-18,6.17-3.46,5.83-50.04,127.46-55,136.47-8.58,15.6-17.61,20.56-31.2,21.2-32.13,1.52-55.95-24.89-45.44-57.28,4.69-14.43,35.62-123.82,51.3-151.67,10.53-18.72,39.78-32.93,60.06-24.16,10.51,4.55,25.06,11.82,29.36,13.71,9.91,4.39,20.55-7.51,24.73-11.15,4.2-3.64,8.2-7.47,13.31-9.66,5.1-2.18,13.12-3.09,19.32-2.18,6.19,.91,9.89,3.25,12.21,5.1,4.56,3.63,7.4,6.51,11.71,10.6,6.48,6.16,11.15,2.43,14.4,.55,5.63-3.27,10.03-5.93,26.69-5.63,17.15,.3,36.86,6.43,40.95,35.67,4.56,32.48-53.19,116.16-49.15,154.98,2.85,27.36,49.1,8.1,53.02,33.08,5.07,32.41-57.8,20.35-72.18,13.31Z"/></svg>